<?xml version="1.0" encoding="UTF-8" standalone="no"?>
<svg
   xmlns:dc="http://purl.org/dc/elements/1.1/"
   xmlns:cc="http://creativecommons.org/ns#"
   xmlns:rdf="http://www.w3.org/1999/02/22-rdf-syntax-ns#"
   xmlns:svg="http://www.w3.org/2000/svg"
   xmlns="http://www.w3.org/2000/svg"
   version="1.1"
   id="svg4208"
   viewBox="0 0 744.09448819 1052.3622047"
   height="297mm"
   width="210mm">
  <defs
     id="defs4210" />
  <metadata
     id="metadata4213">
    <rdf:RDF>
      <cc:Work
         rdf:about="">
        <dc:format>image/svg+xml</dc:format>
        <dc:type
           rdf:resource="http://purl.org/dc/dcmitype/StillImage" />
        <dc:title></dc:title>
      </cc:Work>
    </rdf:RDF>
  </metadata>
  <g
     id="layer10">
    <rect
       ry="12.115803"
       y="60.392406"
       x="-2027.3762"
       height="648.51794"
       width="854.58905"
       id="rect4971"
       style="opacity:0.54799996;fill:#cccccc;fill-opacity:0.97633134;stroke:#000000;stroke-width:4.99999952;stroke-linecap:butt;stroke-miterlimit:4;stroke-dasharray:none;stroke-opacity:1" />
  </g>
  <g
     id="layer1">
    <path
       style="opacity:0.56999966;fill:#aa4400;fill-opacity:1"
       id="path4758"
       d="m -1464.2858,1005.4527 a 87.5,84.207916 0 0 1 -87.4954,84.2079 87.5,84.207916 0 0 1 -87.5046,-84.1991 87.5,84.207916 0 0 1 87.4863,-84.21672 87.5,84.207916 0 0 1 87.5137,84.19032 l -87.5,0.018 z" />
    <g
       id="g4306">
      <path
         style="opacity:0.56999966;fill:#aa4400;fill-opacity:1"
         d="M -512.18164 156.74805 C -650.24775 156.76885 -762.15697 264.49564 -762.14258 397.36719 C -762.12788 530.23872 -650.19501 637.94282 -512.12891 637.93555 C -374.06319 637.92855 -262.14276 530.21297 -262.14258 397.3418 L -403.21484 397.3418 L -424.64258 397.3418 C -424.64309 443.84673 -463.81564 481.54675 -512.13867 481.54883 C -560.46158 481.55083 -599.63759 443.85443 -599.64258 397.34961 C -599.64758 350.84453 -560.47943 313.14008 -512.15625 313.13281 C -463.8327 313.12581 -424.65206 350.81878 -424.64258 397.32422 L -262.14258 397.29102 C -262.14857 370.13816 -266.83393 344.0389 -275.45508 319.69336 A 39.453325 43.946839 0 0 1 -305.01172 311.61914 A 39.453325 43.946839 0 0 1 -320.95508 278.07422 A 69.186269 77.066198 0 0 1 -398.00195 274.19336 A 69.186269 77.066198 0 0 1 -423.59766 191.94727 A 39.453325 43.946839 0 0 1 -455.50781 184.38281 A 39.453325 43.946839 0 0 1 -470.20703 160.13477 C -483.85621 157.91595 -497.87615 156.7459 -512.18164 156.74805 z "
         id="path4756" />
      <path
         style="color:#000000;font-style:normal;font-variant:normal;font-weight:normal;font-stretch:normal;font-size:medium;line-height:normal;font-family:sans-serif;text-indent:0;text-align:start;text-decoration:none;text-decoration-line:none;text-decoration-style:solid;text-decoration-color:#000000;letter-spacing:normal;word-spacing:normal;text-transform:none;direction:ltr;block-progression:tb;writing-mode:lr-tb;baseline-shift:baseline;text-anchor:start;white-space:normal;clip-rule:nonzero;display:inline;overflow:visible;visibility:visible;opacity:1;isolation:auto;mix-blend-mode:normal;color-interpolation:sRGB;color-interpolation-filters:linearRGB;solid-color:#000000;solid-opacity:1;fill:#212121;fill-opacity:1;fill-rule:nonzero;stroke:none;stroke-width:25;stroke-linecap:round;stroke-linejoin:round;stroke-miterlimit:4;stroke-dasharray:none;stroke-dashoffset:0;stroke-opacity:1;color-rendering:auto;image-rendering:auto;shape-rendering:auto;text-rendering:auto;enable-background:accumulate"
         d="M -508.51562 135.88086 C -511.67885 135.87186 -514.83901 135.92786 -517.99805 136.0332 C -635.51367 136.31076 -746.33401 221.27113 -775.37695 335.53711 L -775.37695 335.53906 C -775.37895 335.54606 -775.38081 335.55199 -775.38281 335.55859 C -780.26215 354.62851 -782.61733 374.10108 -782.70117 393.52344 C -784.79709 413.32028 -783.15575 434.10281 -777.38672 451.52148 C -774.44719 460.39691 -770.46019 468.47915 -764.56641 475.04492 C -758.67263 481.61069 -750.1984 486.64757 -740.56055 487.08008 C -732.69196 487.43319 -726.1567 482.54594 -722.52344 477.88281 C -718.89017 473.21968 -716.61054 468.08843 -714.46094 462.40625 C -710.16172 451.04188 -706.80888 437.29436 -703.00977 423.86328 C -699.21065 410.4322 -694.90582 397.37786 -690.15234 388.89648 C -685.39886 380.41511 -682.16801 378.19956 -678.67969 378.21875 C -679.03702 378.21675 -678.34759 378.09581 -676.36133 379.8125 C -674.37507 381.52919 -671.6149 384.83254 -668.81055 389.21875 C -663.20185 397.99118 -657.31333 410.89006 -651.93164 424.01172 C -646.54996 437.13338 -641.61486 450.47388 -637.07812 461.06055 C -634.80977 466.35388 -632.70348 470.91915 -630.25391 474.91211 C -629.02912 476.90859 -627.76385 478.78281 -625.78906 480.73828 C -623.81427 482.69375 -620.73379 485.36072 -615.32227 485.64648 C -604.97506 486.19289 -595.75649 479.88801 -590.67578 472.57422 C -585.59508 465.26042 -582.86734 456.72374 -580.98242 447.58398 C -577.3255 429.85198 -577.31879 409.76385 -579.39648 393.62891 C -579.37568 393.2726 -579.35983 392.91682 -579.33203 392.56055 C -579.28523 391.96236 -579.22896 391.36473 -579.16211 390.76953 C -579.09521 390.17378 -579.01729 389.58042 -578.92969 388.98633 C -578.84809 388.43314 -578.75426 387.87994 -578.6543 387.32812 C -572.59822 357.29998 -542.448 332.19292 -511.82617 332.24805 A 12.50125 12.50125 0 0 0 -510.12109 332.13477 C -505.66419 331.52991 -495.65112 332.48671 -485.4043 336.29492 C -475.15748 340.10314 -464.43615 346.51135 -456.23438 355.41406 C -439.8308 373.21948 -430.73266 400.43297 -454.75977 448.625 C -458.31509 455.75605 -460.48357 460.19873 -461.64648 465.43164 C -462.22794 468.04809 -462.97646 471.42121 -460.89062 476.14453 C -458.8048 480.86785 -453.03643 484.02252 -449.77539 484.53711 C -435.38773 486.8074 -422.69644 479.62635 -413.07031 470.59375 C -403.44419 461.56115 -395.5012 450.0175 -388.23633 438.52734 C -380.97145 427.03719 -374.45171 415.53535 -368.91406 407.16016 C -366.14524 402.97256 -363.59323 399.57672 -361.72461 397.57422 C -360.45785 396.2167 -359.5074 395.73842 -359.55078 395.69141 C -348.36664 393.19209 -344.95874 395.2618 -342.16016 397.75781 C -339.29374 400.31432 -336.93884 405.52813 -334.9375 411.33008 C -328.0038 431.4311 -332.24962 448.19642 -330.84961 465.73633 C -330.1496 474.50628 -326.31034 485.32479 -316.94727 491.27539 C -307.5842 497.226 -296.01389 498.5547 -279.6582 498.05664 C -271.85502 497.81902 -265.00947 492.80787 -260.81055 486.95312 C -256.61162 481.09839 -253.74586 473.9658 -251.13672 464.80859 C -245.91843 446.49419 -242.10719 419.83728 -239.27539 381.42578 A 12.50125 12.50125 0 0 0 -239.35352 378.83789 C -242.2756 357.14154 -248.40994 334.91747 -257.19141 313.26367 A 40.328802 48.380753 19.134622 0 1 -313.24023 323.98828 A 40.328802 48.380753 19.134622 0 1 -328.08203 288.79102 A 70.72153 84.841605 19.134605 0 1 -408.33398 289.75 A 70.72153 84.841605 19.134605 0 1 -430.63086 202.54883 A 40.328802 48.380753 19.134622 0 1 -463.54883 196.50586 A 40.328802 48.380753 19.134622 0 1 -473.13477 138.35742 C -484.84215 136.75262 -496.66454 135.91407 -508.51562 135.88086 z "
         id="path4910" />
      <path
         style="opacity:1;fill:#3c2e2e;fill-opacity:1"
         d="M -508.55078 148.38086 C -511.6764 148.37186 -514.80288 148.42266 -517.92969 148.53125 C -629.38667 148.77572 -735.75423 230.34675 -763.26758 338.63672 C -767.90186 356.74154 -770.14577 375.26791 -770.20898 393.79102 C -774.38086 430.58187 -763.6021 473.53459 -740 474.59375 C -717.22299 475.61588 -716.67185 365.50934 -678.61133 365.71875 C -650.21044 365.875 -626.34026 472.54737 -614.66211 473.16406 C -591.93259 474.36433 -587.8026 423.47467 -591.92969 393.79102 C -591.89659 393.05657 -591.85053 392.32195 -591.79297 391.58594 C -591.73537 390.84992 -591.66678 390.11222 -591.58398 389.375 C -591.50118 388.63778 -591.4057 387.90018 -591.29688 387.16211 C -591.18804 386.42405 -591.06536 385.68581 -590.92969 384.94727 C -583.65664 348.6337 -548.95774 319.68116 -511.80273 319.74805 C -481.22977 315.59896 -392.41928 351.60373 -443.57227 454.20312 C -450.39889 467.89553 -450.98679 471.69102 -447.82812 472.18945 C -410.62831 478.05938 -382.49446 388.23823 -363.2207 383.69922 C -334.21231 376.86768 -327.24756 395.29113 -323.12109 407.25391 C -306.89818 454.28465 -341.08646 487.42149 -280.03906 485.5625 C -267.15194 485.17007 -257.34409 456.49194 -251.74219 380.50586 C -254.17537 362.43956 -259.09089 343.82415 -266.04102 325.45117 A 40.55501 53.111271 25.055349 0 1 -320.91992 335.53516 A 40.55501 53.111271 25.055349 0 1 -334.73438 298.79492 A 71.118213 93.137151 25.055343 0 1 -417.97852 304.26953 A 71.118213 93.137151 25.055343 0 1 -437.19531 212.44531 A 40.55501 53.111271 25.055349 0 1 -471.05273 207.82031 A 40.55501 53.111271 25.055349 0 1 -480.03906 150.08789 C -489.49416 148.98829 -499.0146 148.40759 -508.55078 148.38086 z "
         id="path4763" />
      <path
         style="opacity:0.365;fill:#ffffff;fill-opacity:1"
         d="M -678.61133 365.71875 C -691.2418 365.64926 -699.72916 377.75377 -706.28125 393.88867 C -706.80927 455.96386 -674.36765 518.40355 -620.44336 550.71289 C -551.94579 594.80408 -455.48148 592.8695 -390.9707 541.68945 C -352.9705 512.34209 -325.03087 468.26173 -319.73828 420.27734 C -320.49455 416.07331 -321.57796 411.7275 -323.12109 407.25391 C -327.24756 395.29113 -334.21231 376.86768 -363.2207 383.69922 C -365.07526 384.13597 -367.01245 385.3699 -369.03125 387.22461 C -365.2538 439.47206 -392.92732 493.28469 -439.26562 518.56836 C -489.23883 547.26523 -556.63297 543.97736 -601.80273 507.36914 C -637.807 479.04658 -659.13183 432.17513 -655.81055 386.54688 C -662.9348 374.30368 -670.59204 365.76287 -678.61133 365.71875 z "
         id="path4913" />
      <path
         style="opacity:0.44;fill:#ffffff;fill-opacity:1"
         d="M -516.97656 206.31836 C -602.01919 206.99275 -684.10142 267.52231 -706.47461 350.1582 C -711.74206 369.56344 -713.37758 389.6561 -711.79883 409.52148 C -704.53429 386.22422 -695.09124 365.62808 -678.61133 365.71875 C -668.36202 365.77515 -658.70896 379.72539 -650 397.53516 C -650.31591 378.99898 -646.69121 360.45091 -638.52539 343.37891 C -616.164 295.65029 -565.48301 262.05333 -512.5332 262.45508 C -490.76805 262.00561 -469.3271 267.51434 -450.07227 277.44336 A 71.299284 102.27125 27.897023 0 1 -444.23047 223.04688 A 40.658266 58.319969 27.897026 0 1 -479.09375 219.94336 A 40.658266 58.319969 27.897026 0 1 -488.31055 207.37305 C -495.46981 206.59193 -502.65032 206.22932 -509.8125 206.33008 C -512.20042 206.30248 -514.58855 206.31446 -516.97656 206.31836 z M -341.86133 309.51562 A 71.299284 102.27125 27.897023 0 1 -392.50195 331.23828 C -382.63822 347.74785 -376.33598 366.28831 -374.93555 385.78711 C -374.73046 388.35433 -374.60816 390.92473 -374.56055 393.49609 C -370.49111 388.1614 -366.70864 384.52063 -363.2207 383.69922 C -334.21231 376.86768 -327.24756 395.29113 -323.12109 407.25391 C -318.3896 420.97066 -317.95233 433.49258 -318.18359 444.32227 C -314.82457 431.18306 -313.11619 417.62562 -313.41211 403.88477 C -313.41211 403.88477 -314.80985 372.0405 -311.94531 354.40625 A 40.658266 58.319969 27.897026 0 1 -329.14844 347.90625 A 40.658266 58.319969 27.897026 0 1 -341.86133 309.51562 z "
         id="path4971" />
      <rect
         transform="matrix(0.72993727,-0.68351414,0.42878433,0.90340689,0,0)"
         ry="4.3310862"
         y="-170.55901"
         x="-767.88721"
         height="8.6621723"
         width="38.162918"
         id="rect4260"
         style="opacity:1;fill:#00ff00" />
      <rect
         transform="matrix(0.72993727,-0.68351414,0.42878433,0.90340689,0,0)"
         ry="4.3310862"
         y="-256.01233"
         x="-839.03088"
         height="8.6621723"
         width="38.162918"
         id="rect4282"
         style="opacity:1;fill:#0000ff" />
      <rect
         transform="matrix(0.72993727,-0.68351414,0.42878433,0.90340689,0,0)"
         ry="4.3310862"
         y="-235.84592"
         x="-709.9649"
         height="8.6621723"
         width="38.162918"
         id="rect4284"
         style="opacity:1;fill:#00ff00" />
      <rect
         transform="matrix(0.72993727,-0.68351414,0.42878433,0.90340689,0,0)"
         ry="4.3310862"
         y="0.93573719"
         x="-580.93182"
         height="8.6621723"
         width="38.162918"
         id="rect4286"
         style="opacity:1;fill:#ffff00" />
      <rect
         transform="matrix(0.72993727,-0.68351414,0.42878433,0.90340689,0,0)"
         ry="4.3310862"
         y="71.530579"
         x="-483.44589"
         height="8.6621723"
         width="38.162918"
         id="rect4288"
         style="opacity:1;fill:#00ff00" />
      <rect
         transform="matrix(-0.76713916,-0.64148072,0.84461538,-0.53537357,0,0)"
         ry="4.3310862"
         y="-665.59619"
         x="128.29053"
         height="8.6621723"
         width="38.162918"
         id="rect4292"
         style="opacity:1;fill:#ffff00" />
      <rect
         transform="matrix(-0.76713916,-0.64148072,0.84461538,-0.53537357,0,0)"
         ry="4.3310862"
         y="-578.55206"
         x="15.558492"
         height="8.6621723"
         width="38.162918"
         id="rect4294"
         style="opacity:1;fill:#ffff00" />
      <rect
         transform="matrix(-0.76713916,-0.64148072,0.84461538,-0.53537357,0,0)"
         ry="4.3310862"
         y="-658.30664"
         x="26.446133"
         height="8.6621723"
         width="38.162918"
         id="rect4296"
         style="opacity:1;fill:#0000ff" />
      <rect
         transform="matrix(-0.76713916,-0.64148072,0.84461538,-0.53537357,0,0)"
         ry="4.3310862"
         y="-521.92719"
         x="46.244598"
         height="8.6621723"
         width="38.162918"
         id="rect4298"
         style="opacity:1;fill:#00ff00" />
      <rect
         transform="matrix(-0.76713916,-0.64148072,0.84461538,-0.53537357,0,0)"
         ry="4.3310862"
         y="-560.77948"
         x="-255.37822"
         height="8.6621723"
         width="38.162918"
         id="rect4300"
         style="opacity:1;fill:#00ff00" />
      <rect
         transform="matrix(-0.76713916,-0.64148072,0.84461538,-0.53537357,0,0)"
         ry="4.3310862"
         y="-530.26953"
         x="-124.95221"
         height="8.6621723"
         width="38.162918"
         id="rect4302"
         style="opacity:1;fill:#0000ff" />
      <rect
         transform="matrix(0.72403767,-0.68976043,0.43653045,0.89968948,0,0)"
         ry="4.3310862"
         y="-256.82349"
         x="-634.00922"
         height="8.6621723"
         width="38.162918"
         id="rect4304"
         style="opacity:1;fill:#0000ff" />
    </g>
    <rect
       transform="matrix(-0.76713916,-0.64148072,0.84461538,-0.53537357,0,0)"
       ry="4.3310862"
       y="-340.26907"
       x="210.86714"
       height="8.6621723"
       width="38.162918"
       id="rect4252"
       style="opacity:1;fill:#00ff00" />
    <ellipse
       ry="310"
       rx="306.42856"
       cy="397.55865"
       cx="-1368.8784"
       id="path4325"
       style="opacity:0.18800001;fill:#00ff00" />
    <path
       id="ellipse4329"
       d="m -1408.1663,162.10537 c -149.4947,0.40107 -276.4925,118.80661 -272.1676,251.02771 3.7698,115.25148 131.7049,250.62062 272.1676,251.0283 144.3466,0.41896 282.4449,-142.30473 272.1654,-251.0283 -13.995,-148.02198 -123.8061,-251.42573 -272.1654,-251.02771 z"
       style="opacity:0.09800002;fill:#008000" />
  </g>
</svg>
